<?xml version="1.0" standalone="no"?>
<!DOCTYPE svg PUBLIC "-//W3C//DTD SVG 20010904//EN"
 "http://www.w3.org/TR/2001/REC-SVG-20010904/DTD/svg10.dtd">
<svg version="1.0" xmlns="http://www.w3.org/2000/svg"
 width="512.000000pt" height="512.000000pt" viewBox="0 0 512.000000 512.000000"
 preserveAspectRatio="xMidYMid meet">

<g transform="translate(0.000000,512.000000) scale(0.100000,-0.100000)"
fill="#000000" stroke="none">
<path d="M2321 5110 c-467 -45 -923 -224 -1310 -513 -124 -92 -396 -364 -488
-488 -147 -196 -288 -455 -368 -673 -48 -131 -108 -371 -131 -521 -25 -168
-25 -542 0 -710 23 -150 83 -390 131 -521 80 -218 221 -477 368 -673 92 -124
364 -396 488 -488 196 -147 455 -288 673 -368 131 -48 371 -108 521 -131 168
-25 542 -25 710 0 150 23 390 83 521 131 218 80 477 221 673 368 124 92 396
364 488 488 147 196 288 455 368 673 48 131 108 371 131 521 25 168 25 542 0
710 -23 150 -83 390 -131 521 -80 218 -221 477 -368 673 -92 124 -364 396
-488 488 -196 147 -455 288 -673 368 -131 48 -372 109 -516 130 -135 19 -464
28 -599 15z m529 -230 c397 -58 703 -174 1015 -383 504 -337 869 -882 983
-1467 39 -199 46 -265 46 -470 0 -205 -7 -271 -46 -470 -114 -585 -479 -1130
-983 -1467 -314 -210 -606 -320 -1020 -384 -104 -17 -466 -17 -570 0 -414 64
-706 174 -1020 384 -504 337 -869 882 -983 1467 -39 199 -46 265 -46 470 0
205 7 271 46 470 98 504 390 991 791 1323 385 318 824 496 1337 541 77 7 371
-2 450 -14z"/>
<path d="M2042 3971 c-17 -18 -32 -45 -35 -68 -4 -21 -7 -206 -7 -410 l0 -373
-372 0 c-205 0 -390 -3 -411 -7 -23 -3 -50 -18 -68 -35 l-29 -30 0 -488 0
-488 29 -30 c18 -17 45 -32 68 -35 21 -4 206 -7 411 -7 l372 0 0 -372 c0 -205
3 -390 7 -411 3 -23 18 -50 35 -68 l30 -29 488 0 488 0 30 29 c17 18 32 45 35
68 4 21 7 206 7 411 l0 372 373 0 c204 0 389 3 410 7 23 3 50 18 68 35 l29 30
0 476 c0 513 0 506 -53 546 -28 20 -40 21 -428 24 l-399 3 0 372 c0 205 -3
389 -7 410 -3 23 -18 50 -35 68 l-30 29 -488 0 -488 0 -30 -29z m858 -587 c0
-331 2 -401 15 -428 30 -62 20 -61 468 -64 l407 -3 0 -329 0 -330 -397 0
c-359 0 -401 -2 -433 -18 -69 -34 -70 -40 -70 -479 l0 -393 -330 0 -330 0 0
393 c0 353 -2 395 -18 427 -34 69 -40 70 -479 70 l-393 0 0 330 0 330 393 0
c353 0 395 2 427 18 69 34 70 40 70 480 l0 392 335 0 335 0 0 -396z"/>
</g>
</svg>
